<svg xmlns="http://www.w3.org/2000/svg" viewBox="0 0 512 512" width="100%" height="100%">
  <!-- Circular deep walnut background -->
  <circle cx="256" cy="256" r="240" fill="#13110f" stroke="#BD9A32" stroke-width="10" />
  
  <!-- Delicate dashed inner bezel ring -->
  <circle cx="256" cy="256" r="216" fill="none" stroke="#BD9A32" stroke-width="1.5" stroke-dasharray="4 8" opacity="0.45" />
  
  <!-- Standing Compass Icon, centered inside the 512x512 circle -->
  <!-- We want to scale the compass by 1.15 to fit nicely.
       Original compass size: 173.74 x 357.1.
       Center of original compass: (178.86, 181.39).
       We want it centered at (256, 256).
       Scale factor S = 1.12.
       New dimensions: 194.6 x 400.
       Translation TX = 256 - (178.86 * 1.12) = 256 - 200.32 = 55.68.
       Translation TY = 256 - (181.39 * 1.12) = 256 - 203.16 = 52.84.
  -->
  <g id="twa-compass-badge" fill="#BD9A32" transform="translate(55.68, 52.84) scale(1.12)">
    <path id="compass-left-leg" d="M 191.316406 46.957031 C 184.949219 50.867188 176.585938 48.863281 172.675781 42.492188 C 168.765625 36.125 170.769531 27.761719 177.140625 23.851562 C 183.511719 19.941406 191.871094 21.945312 195.78125 28.316406 C 199.679688 34.683594 197.6875 43.046875 191.316406 46.957031 M 156.742188 177.445312 C 151.984375 177.457031 141.273438 176.902344 134.214844 172.058594 L 165.371094 70.074219 C 171.273438 68.796875 178.320312 72.902344 181.285156 74.882812 Z M 128.140625 296.972656 C 123.113281 299.347656 113.878906 305.222656 105.722656 318.625 C 105.761719 308.199219 104.003906 297.378906 98.742188 288.179688 L 130.957031 182.753906 C 135.433594 183.738281 149.511719 186.960938 153.839844 189.554688 Z M 208.542969 20.472656 C 200.304688 7.042969 182.722656 2.839844 169.296875 11.078125 C 155.867188 19.328125 151.664062 36.898438 159.902344 50.339844 C 160.957031 52.046875 162.164062 53.621094 163.492188 55.023438 L 91.992188 289.066406 C 92.261719 289.472656 92.53125 289.878906 92.777344 290.296875 C 108.332031 315.625 92.136719 357.800781 92.136719 357.800781 L 98.152344 359.941406 C 106.265625 308.691406 133.429688 301.523438 133.429688 301.523438 L 190.433594 63.261719 C 193.433594 62.597656 196.382812 61.429688 199.164062 59.71875 C 212.589844 51.484375 216.796875 33.910156 208.542969 20.472656 " />
    <path id="compass-right-leg" d="M 244.535156 160.117188 C 236.46875 150.699219 233.835938 139.386719 236.691406 126.4375 C 241.289062 128.125 250.535156 132.625 255.578125 142.84375 C 259.328125 150.429688 260.066406 159.785156 257.8125 170.742188 C 255.058594 169.253906 249.402344 165.808594 244.535156 160.117188 M 254.925781 181.179688 C 253.472656 184.105469 253.152344 188.054688 253.992188 193.28125 C 250.167969 188.730469 245.371094 184.378906 239.566406 181.402344 C 241.191406 174.847656 241.460938 168.996094 240.832031 163.820312 C 247.019531 170.914062 254.078125 174.75 256.546875 175.957031 C 256.070312 177.664062 255.539062 179.410156 254.925781 181.179688 M 234.734375 179.152344 C 224.566406 174.039062 217.976562 167.101562 215.109375 158.542969 C 211.730469 148.398438 214.507812 138.527344 215.714844 135.550781 C 218.738281 137.371094 223.015625 140.417969 226.851562 144.847656 C 235.117188 154.375 237.773438 165.910156 234.734375 179.152344 M 205.101562 104.257812 L 219.648438 97.285156 L 230.921875 122.761719 L 231.746094 124.691406 C 230.320312 130.851562 230.097656 136.386719 230.6875 141.292969 L 230.652344 141.253906 C 225.328125 135.179688 219.363281 131.492188 216.15625 129.796875 Z M 190.148438 69.71875 L 204.621094 63.285156 L 217.542969 92.503906 L 203.023438 99.460938 Z M 178.75 52.21875 C 169.503906 49.132812 164.476562 39.113281 167.550781 29.851562 C 170.625 20.59375 180.65625 15.566406 189.917969 18.640625 C 199.164062 21.714844 204.203125 31.746094 201.117188 41.003906 C 198.042969 50.265625 188.011719 55.292969 178.75 52.21875 M 259.734375 183.257812 C 275.71875 137.0625 245.199219 123.746094 237.425781 121.164062 C 236.332031 120.808594 235.695312 120.648438 235.695312 120.648438 L 205.816406 53.066406 C 207.941406 50.484375 209.652344 47.472656 210.769531 44.09375 C 215.625 29.484375 207.722656 13.707031 193.101562 8.851562 C 178.492188 3.996094 162.71875 11.902344 157.859375 26.519531 C 153.003906 41.128906 160.910156 56.90625 175.53125 61.761719 C 177.535156 62.425781 179.5625 62.855469 181.566406 63.050781 L 211.519531 132.230469 C 209.824219 135.023438 197.734375 167.753906 234.355469 184.769531 C 252.488281 191.878906 261.035156 215.402344 261.035156 215.402344 L 265.734375 213.1875 C 265.734375 213.1875 255.636719 190.527344 259.734375 183.257812 " />
  </g>
</svg>